<?xml version="1.0" encoding="UTF-8"?>
<svg width="189px" height="57px" viewBox="0 0 189 57" version="1.1" xmlns="http://www.w3.org/2000/svg" xmlns:xlink="http://www.w3.org/1999/xlink">
    <!-- Generator: Sketch 47.1 (45422) - http://www.bohemiancoding.com/sketch -->
    <title>logo</title>
    <desc>Created with Sketch.</desc>
    <defs></defs>
    <g id="Page-1" stroke="none" stroke-width="1" fill="none" fill-rule="evenodd">
        <g id="logo" fill-rule="nonzero">
            <g id="Group">
                <path d="M18.703,41.637 L18.703,30.192 C18.703,27.334 17.655,26.271 14.836,26.271 L11.836,26.271 L11.836,18.085 L12.336,18.085 C16.52,18.085 18.15,16.954 18.15,14.052 C18.15,11.266 16.097,10.02 14.063,10.02 C12.028,10.02 9.975,11.267 9.975,14.052 L9.975,41.637 L0.794,41.637 L0.794,14.605 C0.794,8.164 4.526,1.281 15.002,1.281 C23.096,1.281 27.331,7.316 27.331,13.278 C27.331,16.734 25.832,19.576 23.179,21.23 C27.15,23.035 27.884,25.627 27.884,30.137 L27.884,41.637 L18.703,41.637 Z" id="Shape" fill="#00788A"></path>
                <path d="M15.002,1.781 C22.851,1.781 26.831,7.751 26.831,13.278 C26.831,16.816 25.172,19.801 22.022,21.293 C26.72,23.062 27.384,25.605 27.384,30.137 L27.384,41.137 L19.203,41.137 L19.203,30.192 C19.203,27.208 18.097,25.771 14.836,25.771 L12.336,25.771 L12.336,18.585 C15.873,18.585 18.65,17.866 18.65,14.052 C18.65,11.067 16.495,9.52 14.063,9.52 C11.63,9.52 9.475,11.067 9.475,14.052 L9.475,41.137 L1.294,41.137 L1.294,14.605 C1.294,8.746 4.5,1.781 15.002,1.781 L15.002,1.781 Z M15.002,0.781 C4.158,0.781 0.294,7.922 0.294,14.605 L0.294,41.137 L0.294,42.137 L1.294,42.137 L9.475,42.137 L10.475,42.137 L10.475,41.137 L10.475,14.052 C10.475,11.445 12.408,10.52 14.063,10.52 C15.718,10.52 17.65,11.445 17.65,14.052 C17.65,16.661 16.259,17.585 12.336,17.585 L11.336,17.585 L11.336,18.585 L11.336,25.771 L11.336,26.771 L12.336,26.771 L14.836,26.771 C17.385,26.771 18.203,27.602 18.203,30.192 L18.203,41.137 L18.203,42.137 L19.203,42.137 L27.384,42.137 L28.384,42.137 L28.384,41.137 L28.384,30.137 C28.384,25.804 27.682,23.06 24.163,21.16 C26.517,19.372 27.831,16.592 27.831,13.278 C27.831,10.149 26.654,7.054 24.601,4.786 C22.948,2.959 19.94,0.781 15.002,0.781 L15.002,0.781 Z" id="Shape" fill="#DBDBDB"></path>
            </g>
            <g id="Group" transform="translate(29.000000, 1.000000)">
                <path d="M20.713,40.637 C7.232,40.637 1.198,30.67 1.198,20.791 C1.198,10.912 7.232,0.945 20.713,0.945 L25.469,0.945 L25.469,9.683 L19.995,9.683 C14.389,9.683 11.545,13.337 10.717,16.698 L25.469,16.698 L25.469,24.884 L10.717,24.884 C11.545,28.245 14.389,31.899 19.995,31.899 L25.469,31.899 L25.469,40.637 L20.713,40.637 Z" id="Shape" fill="#00788A"></path>
                <path d="M24.969,1.445 L24.969,9.183 L19.995,9.183 C13.748,9.183 10.763,13.495 10.1,17.198 L24.969,17.198 L24.969,24.384 L10.1,24.384 C10.763,28.087 13.748,32.399 19.995,32.399 L24.969,32.399 L24.969,40.137 L20.713,40.137 C7.447,40.137 1.698,30.298 1.698,20.791 C1.698,11.283 7.447,1.445 20.713,1.445 L24.969,1.445 L24.969,1.445 Z M25.969,0.445 L24.969,0.445 L20.713,0.445 C14.326,0.445 9.055,2.679 5.468,6.906 C2.392,10.531 0.698,15.463 0.698,20.791 C0.698,26.12 2.392,31.051 5.468,34.676 C9.054,38.903 14.326,41.137 20.713,41.137 L24.969,41.137 L25.969,41.137 L25.969,40.137 L25.969,32.399 L25.969,31.399 L24.969,31.399 L19.995,31.399 C15.025,31.399 12.346,28.376 11.379,25.384 L24.969,25.384 L25.969,25.384 L25.969,24.384 L25.969,17.198 L25.969,16.198 L24.969,16.198 L11.379,16.198 C12.346,13.206 15.025,10.183 19.995,10.183 L24.969,10.183 L25.969,10.183 L25.969,9.183 L25.969,1.445 L25.969,0.445 L25.969,0.445 Z" id="Shape" fill="#DBDBDB"></path>
            </g>
            <path d="M59.219,41.137 L59.219,14.605 C59.219,7.64 62.867,2.444 70.385,2.444 L79.284,2.444 L79.284,10.183 L72.319,10.183 C68.948,10.183 67.4,11.62 67.4,14.826 L67.4,18.917 L79.284,18.917 L79.284,26.655 L67.4,26.655 L67.4,41.137 L59.219,41.137 Z" id="Shape" fill="#00788A"></path>
            <g id="Group" transform="translate(57.000000, 1.000000)" fill="#DBDBDB">
                <g transform="translate(26.000000, 0.000000)" id="Shape" stroke="#00788A" stroke-width="1.257">
                    <path d="M98.033,1.444 L84.048,24.549 L93.335,24.549 L93.335,13.715 L99.913,2.55 C100.299,1.887 100.852,0.947 100.907,0.947 C100.962,0.947 100.962,1.776 100.962,2.439 L100.962,24.549 L104.666,24.549 L104.666,31.956 L100.962,31.956 L100.962,40.137 L93.335,40.137 L93.335,31.956 L81.782,31.956 C79.074,31.956 76.42,30.187 76.42,26.65 C76.42,24.273 77.581,22.228 78.521,20.68 L90.018,1.444 L98.033,1.444 Z"></path>
                    <polygon points="59.181 1.444 73.109 1.444 73.109 40.137 65.15 40.137 65.15 8.851 59.181 8.851"></polygon>
                    <path d="M43.244,0.781 C34.897,0.781 29.812,6.419 29.812,13.605 L29.812,27.977 C29.812,35.162 34.897,40.8 43.244,40.8 C51.589,40.8 56.676,35.162 56.676,27.977 L56.676,13.605 C56.676,6.419 51.589,0.781 43.244,0.781 Z M48.495,27.977 C48.495,31.072 46.947,33.062 43.244,33.062 C39.54,33.062 37.993,31.072 37.993,27.977 L37.993,13.605 C37.993,10.51 39.54,8.52 43.244,8.52 C46.947,8.52 48.495,10.51 48.495,13.605 L48.495,27.977 Z"></path>
                    <path d="M27.456,40.137 L6.286,40.137 C3.079,40.137 0.371,39.031 0.371,35.494 C0.371,32.841 1.09,31.901 5.788,27.258 L13.803,19.298 C16.346,16.756 18.28,14.6 18.28,12.278 C18.28,10.62 16.622,8.409 13.637,8.409 C10.653,8.409 8.994,10.51 8.994,12.499 C8.994,14.987 10.376,17.087 12.255,17.474 L6.617,23.112 C2.914,21.067 1.034,16.866 1.034,12.72 C1.034,5.866 6.617,0.781 13.637,0.781 C20.657,0.781 26.24,5.866 26.24,12.72 C26.24,18.027 24.028,20.68 20.27,24.162 L11.315,32.509 L27.456,32.509 L27.456,40.137 L27.456,40.137 Z"></path>
                </g>
                <path d="M22.284,1.444 L22.284,9.183 L15.319,9.183 C11.948,9.183 10.4,10.62 10.4,13.826 L10.4,17.917 L22.284,17.917 L22.284,25.655 L10.4,25.655 L10.4,40.137 L2.219,40.137 L2.219,13.605 C2.219,6.64 5.867,1.444 13.385,1.444 L22.284,1.444 L22.284,1.444 Z M23.541,0.187 L22.284,0.187 L13.385,0.187 C5.722,0.187 0.962,5.328 0.962,13.605 L0.962,40.137 L0.962,41.394 L2.219,41.394 L10.4,41.394 L11.657,41.394 L11.657,40.137 L11.657,26.912 L22.284,26.912 L23.541,26.912 L23.541,25.655 L23.541,17.917 L23.541,16.66 L22.284,16.66 L11.657,16.66 L11.657,13.826 C11.657,11.326 12.615,10.44 15.319,10.44 L22.284,10.44 L23.541,10.44 L23.541,9.183 L23.541,1.444 L23.541,0.187 L23.541,0.187 Z" id="Shape"></path>
            </g>
            <g id="Group" transform="translate(0.000000, 47.000000)" fill="#B5B5B5">
                <path d="M0.962,0.752 C1.52,0.638 2.317,0.574 3.077,0.574 C4.255,0.574 5.015,0.789 5.547,1.271 C5.978,1.651 6.218,2.233 6.218,2.892 C6.218,4.019 5.509,4.767 4.61,5.07 L4.61,5.108 C5.269,5.336 5.661,5.944 5.864,6.831 C6.143,8.021 6.345,8.845 6.523,9.174 L5.383,9.174 C5.244,8.933 5.054,8.199 4.813,7.135 C4.56,5.957 4.104,5.514 3.104,5.476 L2.064,5.476 L2.064,9.174 L0.962,9.174 L0.962,0.752 Z M2.064,4.64 L3.191,4.64 C4.369,4.64 5.116,3.994 5.116,3.019 C5.116,1.917 4.318,1.436 3.153,1.423 C2.621,1.423 2.241,1.474 2.064,1.525 L2.064,4.64 Z" id="Shape"></path>
                <path d="M8.359,6.312 C8.384,7.819 9.347,8.44 10.462,8.44 C11.26,8.44 11.741,8.3 12.159,8.123 L12.349,8.921 C11.956,9.098 11.285,9.301 10.31,9.301 C8.423,9.301 7.296,8.06 7.296,6.211 C7.296,4.362 8.385,2.905 10.171,2.905 C12.172,2.905 12.704,4.665 12.704,5.793 C12.704,6.021 12.679,6.198 12.666,6.312 L8.359,6.312 Z M11.627,5.514 C11.64,4.805 11.336,3.703 10.082,3.703 C8.955,3.703 8.461,4.742 8.372,5.514 L11.627,5.514 Z" id="Shape"></path>
                <path d="M13.933,8.035 C14.263,8.25 14.845,8.478 15.402,8.478 C16.213,8.478 16.592,8.073 16.592,7.566 C16.592,7.034 16.276,6.743 15.452,6.439 C14.35,6.046 13.831,5.439 13.831,4.704 C13.831,3.716 14.629,2.906 15.946,2.906 C16.567,2.906 17.111,3.083 17.453,3.286 L17.174,4.097 C16.933,3.945 16.49,3.743 15.92,3.743 C15.262,3.743 14.894,4.123 14.894,4.579 C14.894,5.085 15.262,5.313 16.06,5.618 C17.123,6.023 17.668,6.555 17.668,7.467 C17.668,8.544 16.832,9.303 15.376,9.303 C14.705,9.303 14.084,9.138 13.654,8.885 L13.933,8.035 Z" id="Shape"></path>
                <path d="M19.721,6.312 C19.746,7.819 20.709,8.44 21.824,8.44 C22.622,8.44 23.103,8.3 23.521,8.123 L23.711,8.921 C23.318,9.098 22.647,9.301 21.672,9.301 C19.785,9.301 18.658,8.06 18.658,6.211 C18.658,4.362 19.747,2.905 21.533,2.905 C23.534,2.905 24.066,4.665 24.066,5.793 C24.066,6.021 24.041,6.198 24.028,6.312 L19.721,6.312 Z M22.989,5.514 C23.002,4.805 22.698,3.703 21.444,3.703 C20.317,3.703 19.823,4.742 19.734,5.514 L22.989,5.514 Z" id="Shape"></path>
                <path d="M28.841,9.174 L28.752,8.402 L28.714,8.402 C28.372,8.883 27.714,9.314 26.84,9.314 C25.599,9.314 24.965,8.44 24.965,7.554 C24.965,6.072 26.282,5.262 28.651,5.274 L28.651,5.148 C28.651,4.641 28.511,3.73 27.257,3.73 C26.687,3.73 26.092,3.907 25.661,4.186 L25.408,3.451 C25.914,3.122 26.649,2.907 27.422,2.907 C29.296,2.907 29.752,4.186 29.752,5.415 L29.752,7.707 C29.752,8.239 29.777,8.758 29.854,9.176 L28.841,9.176 L28.841,9.174 Z M28.676,6.046 C27.46,6.021 26.079,6.236 26.079,7.427 C26.079,8.149 26.56,8.49 27.13,8.49 C27.928,8.49 28.435,7.984 28.612,7.464 C28.65,7.35 28.675,7.224 28.675,7.11 L28.675,6.046 L28.676,6.046 Z" id="Shape"></path>
                <path d="M31.552,4.957 C31.552,4.235 31.54,3.614 31.502,3.044 L32.477,3.044 L32.515,4.247 L32.565,4.247 C32.844,3.424 33.515,2.905 34.262,2.905 C34.388,2.905 34.477,2.918 34.578,2.943 L34.578,3.994 C34.464,3.969 34.35,3.956 34.198,3.956 C33.413,3.956 32.856,4.551 32.704,5.387 C32.679,5.539 32.653,5.716 32.653,5.906 L32.653,9.174 L31.551,9.174 L31.551,4.957 L31.552,4.957 Z" id="Shape"></path>
            </g>
            <g id="Group" transform="translate(34.000000, 47.000000)" fill="#B5B5B5">
                <path d="M5.485,8.946 C5.193,9.098 4.547,9.3 3.725,9.3 C1.876,9.3 0.673,8.047 0.673,6.172 C0.673,4.285 1.965,2.917 3.965,2.917 C4.624,2.917 5.206,3.082 5.51,3.233 L5.257,4.094 C4.991,3.942 4.573,3.803 3.965,3.803 C2.559,3.803 1.799,4.841 1.799,6.12 C1.799,7.538 2.711,8.412 3.927,8.412 C4.56,8.412 4.978,8.247 5.295,8.108 L5.485,8.946 Z" id="Shape"></path>
                <path d="M6.79,0.182 L7.905,0.182 L7.905,4.007 L7.93,4.007 C8.107,3.691 8.386,3.412 8.728,3.222 C9.057,3.032 9.45,2.906 9.868,2.906 C10.691,2.906 12.009,3.412 12.009,5.528 L12.009,9.175 L10.894,9.175 L10.894,5.654 C10.894,4.666 10.527,3.83 9.476,3.83 C8.754,3.83 8.184,4.337 7.982,4.945 C7.919,5.097 7.906,5.261 7.906,5.477 L7.906,9.175 L6.79,9.175 L6.79,0.182 Z" id="Shape"></path>
                <polygon id="Shape" points="20.963 5.172 17.645 5.172 17.645 8.25 21.343 8.25 21.343 9.174 16.543 9.174 16.543 0.638 21.153 0.638 21.153 1.563 17.645 1.563 17.645 4.26 20.963 4.26"></polygon>
                <path d="M23.256,3.044 L24.13,4.361 C24.358,4.703 24.548,5.02 24.75,5.361 L24.788,5.361 C24.991,4.994 25.193,4.677 25.396,4.348 L26.257,3.043 L27.46,3.043 L25.37,6.007 L27.523,9.173 L26.256,9.173 L25.357,7.793 C25.116,7.439 24.914,7.096 24.698,6.729 L24.673,6.729 C24.47,7.096 24.255,7.426 24.027,7.793 L23.14,9.173 L21.911,9.173 L24.09,6.045 L22.013,3.044 L23.256,3.044 Z" id="Shape"></path>
                <path d="M32.971,8.946 C32.679,9.098 32.033,9.3 31.211,9.3 C29.362,9.3 28.159,8.047 28.159,6.172 C28.159,4.285 29.451,2.917 31.451,2.917 C32.11,2.917 32.692,3.082 32.996,3.233 L32.743,4.094 C32.477,3.942 32.059,3.803 31.451,3.803 C30.045,3.803 29.285,4.841 29.285,6.12 C29.285,7.538 30.197,8.412 31.413,8.412 C32.046,8.412 32.464,8.247 32.781,8.108 L32.971,8.946 Z" id="Shape"></path>
                <path d="M34.896,6.312 C34.921,7.819 35.884,8.44 36.999,8.44 C37.797,8.44 38.278,8.3 38.696,8.123 L38.886,8.921 C38.493,9.098 37.822,9.301 36.847,9.301 C34.96,9.301 33.833,8.06 33.833,6.211 C33.833,4.362 34.922,2.905 36.708,2.905 C38.709,2.905 39.241,4.665 39.241,5.793 C39.241,6.021 39.216,6.198 39.203,6.312 L34.896,6.312 Z M38.164,5.514 C38.177,4.805 37.873,3.703 36.619,3.703 C35.492,3.703 34.998,4.742 34.909,5.514 L38.164,5.514 Z" id="Shape"></path>
                <polygon id="Shape" points="40.622 0.182 41.737 0.182 41.737 9.174 40.622 9.174"></polygon>
                <polygon id="Shape" points="43.611 0.182 44.726 0.182 44.726 9.174 43.611 9.174"></polygon>
                <path d="M47.221,6.312 C47.246,7.819 48.209,8.44 49.324,8.44 C50.122,8.44 50.603,8.3 51.021,8.123 L51.211,8.921 C50.818,9.098 50.147,9.301 49.172,9.301 C47.285,9.301 46.158,8.06 46.158,6.211 C46.158,4.362 47.247,2.905 49.033,2.905 C51.034,2.905 51.566,4.665 51.566,5.793 C51.566,6.021 51.541,6.198 51.528,6.312 L47.221,6.312 Z M50.488,5.514 C50.501,4.805 50.197,3.703 48.943,3.703 C47.816,3.703 47.322,4.742 47.233,5.514 L50.488,5.514 Z" id="Shape"></path>
                <path d="M52.946,4.703 C52.946,4.07 52.934,3.551 52.896,3.044 L53.883,3.044 L53.946,4.057 L53.971,4.057 C54.275,3.474 54.984,2.905 55.997,2.905 C56.846,2.905 58.163,3.411 58.163,5.514 L58.163,9.174 L57.048,9.174 L57.048,5.64 C57.048,4.652 56.681,3.829 55.63,3.829 C54.896,3.829 54.325,4.349 54.136,4.969 C54.085,5.108 54.06,5.298 54.06,5.488 L54.06,9.174 L52.945,9.174 L52.945,4.703 L52.946,4.703 Z" id="Shape"></path>
                <path d="M64.346,8.946 C64.054,9.098 63.408,9.3 62.585,9.3 C60.736,9.3 59.533,8.047 59.533,6.172 C59.533,4.285 60.824,2.917 62.825,2.917 C63.484,2.917 64.066,3.082 64.371,3.233 L64.117,4.094 C63.851,3.942 63.433,3.803 62.825,3.803 C61.42,3.803 60.66,4.841 60.66,6.12 C60.66,7.538 61.572,8.412 62.787,8.412 C63.42,8.412 63.838,8.247 64.155,8.108 L64.346,8.946 Z" id="Shape"></path>
                <path d="M66.271,6.312 C66.296,7.819 67.259,8.44 68.374,8.44 C69.172,8.44 69.653,8.3 70.071,8.123 L70.26,8.921 C69.867,9.098 69.197,9.301 68.221,9.301 C66.334,9.301 65.207,8.06 65.207,6.211 C65.207,4.362 66.296,2.905 68.082,2.905 C70.083,2.905 70.615,4.665 70.615,5.793 C70.615,6.021 70.59,6.198 70.576,6.312 L66.271,6.312 Z M69.539,5.514 C69.552,4.805 69.248,3.703 67.994,3.703 C66.866,3.703 66.373,4.742 66.284,5.514 L69.539,5.514 Z" id="Shape"></path>
                <polygon id="Shape" points="74.719 0.638 79.317 0.638 79.317 1.563 75.822 1.563 75.822 4.4 79.051 4.4 79.051 5.312 75.822 5.312 75.822 9.175 74.719 9.175"></polygon>
                <path d="M80.85,4.957 C80.85,4.235 80.837,3.614 80.799,3.044 L81.775,3.044 L81.813,4.247 L81.864,4.247 C82.142,3.424 82.813,2.905 83.561,2.905 C83.687,2.905 83.776,2.918 83.877,2.943 L83.877,3.994 C83.763,3.969 83.648,3.956 83.496,3.956 C82.711,3.956 82.154,4.551 82.002,5.387 C81.977,5.539 81.951,5.716 81.951,5.906 L81.951,9.174 L80.849,9.174 L80.849,4.957 L80.85,4.957 Z" id="Shape"></path>
                <path d="M88.387,9.174 L88.297,8.402 L88.26,8.402 C87.918,8.883 87.259,9.314 86.385,9.314 C85.145,9.314 84.511,8.44 84.511,7.554 C84.511,6.072 85.828,5.262 88.197,5.274 L88.197,5.148 C88.197,4.641 88.057,3.73 86.803,3.73 C86.233,3.73 85.638,3.907 85.207,4.186 L84.954,3.451 C85.461,3.122 86.195,2.907 86.968,2.907 C88.842,2.907 89.298,4.186 89.298,5.415 L89.298,7.707 C89.298,8.239 89.323,8.758 89.4,9.176 L88.387,9.176 L88.387,9.174 Z M88.222,6.046 C87.006,6.021 85.625,6.236 85.625,7.427 C85.625,8.149 86.106,8.49 86.676,8.49 C87.475,8.49 87.981,7.984 88.158,7.464 C88.196,7.35 88.221,7.224 88.221,7.11 L88.221,6.046 L88.222,6.046 Z" id="Shape"></path>
                <path d="M91.098,4.703 C91.098,4.07 91.085,3.551 91.047,3.044 L92.022,3.044 L92.073,4.032 L92.111,4.032 C92.454,3.449 93.023,2.905 94.036,2.905 C94.872,2.905 95.506,3.411 95.771,4.134 L95.796,4.134 C95.986,3.792 96.227,3.526 96.481,3.336 C96.848,3.057 97.252,2.905 97.835,2.905 C98.646,2.905 99.849,3.437 99.849,5.565 L99.849,9.174 L98.76,9.174 L98.76,5.704 C98.76,4.526 98.329,3.817 97.43,3.817 C96.797,3.817 96.303,4.286 96.114,4.83 C96.063,4.982 96.024,5.185 96.024,5.388 L96.024,9.175 L94.935,9.175 L94.935,5.502 C94.935,4.527 94.504,3.817 93.657,3.817 C92.96,3.817 92.454,4.375 92.276,4.932 C92.213,5.097 92.187,5.286 92.187,5.476 L92.187,9.174 L91.098,9.174 L91.098,4.703 L91.098,4.703 Z" id="Shape"></path>
                <path d="M102.282,6.312 C102.307,7.819 103.27,8.44 104.386,8.44 C105.183,8.44 105.665,8.3 106.083,8.123 L106.272,8.921 C105.879,9.098 105.208,9.301 104.233,9.301 C102.346,9.301 101.219,8.06 101.219,6.211 C101.219,4.362 102.307,2.905 104.093,2.905 C106.094,2.905 106.626,4.665 106.626,5.793 C106.626,6.021 106.601,6.198 106.588,6.312 L102.282,6.312 Z M105.549,5.514 C105.563,4.805 105.258,3.703 104.004,3.703 C102.877,3.703 102.383,4.742 102.295,5.514 L105.549,5.514 Z" id="Shape"></path>
                <path d="M108.451,3.044 L109.262,6.16 C109.439,6.844 109.605,7.477 109.718,8.11 L109.756,8.11 C109.896,7.489 110.098,6.831 110.3,6.172 L111.301,3.044 L112.239,3.044 L113.189,6.109 C113.417,6.843 113.593,7.489 113.733,8.11 L113.771,8.11 C113.873,7.489 114.037,6.843 114.24,6.122 L115.113,3.044 L116.216,3.044 L114.24,9.174 L113.226,9.174 L112.288,6.248 C112.073,5.564 111.895,4.956 111.744,4.234 L111.719,4.234 C111.568,4.969 111.377,5.602 111.161,6.26 L110.174,9.173 L109.161,9.173 L107.311,3.043 L108.451,3.043 L108.451,3.044 Z" id="Shape"></path>
                <path d="M122.877,6.058 C122.877,8.325 121.307,9.313 119.824,9.313 C118.165,9.313 116.886,8.097 116.886,6.16 C116.886,4.108 118.228,2.905 119.925,2.905 C121.686,2.905 122.877,4.184 122.877,6.058 Z M118.014,6.122 C118.014,7.464 118.785,8.477 119.875,8.477 C120.939,8.477 121.736,7.477 121.736,6.096 C121.736,5.057 121.216,3.741 119.9,3.741 C118.583,3.741 118.014,4.957 118.014,6.122 Z" id="Shape"></path>
                <path d="M124.284,4.957 C124.284,4.235 124.271,3.614 124.233,3.044 L125.209,3.044 L125.247,4.247 L125.298,4.247 C125.576,3.424 126.247,2.905 126.995,2.905 C127.121,2.905 127.21,2.918 127.311,2.943 L127.311,3.994 C127.197,3.969 127.082,3.956 126.93,3.956 C126.145,3.956 125.588,4.551 125.436,5.387 C125.411,5.539 125.385,5.716 125.385,5.906 L125.385,9.174 L124.283,9.174 L124.283,4.957 L124.284,4.957 Z" id="Shape"></path>
                <path d="M129.528,5.856 L129.553,5.856 C129.705,5.641 129.92,5.375 130.098,5.16 L131.896,3.045 L133.239,3.045 L130.87,5.566 L133.568,9.175 L132.214,9.175 L130.099,6.237 L129.529,6.87 L129.529,9.175 L128.427,9.175 L128.427,0.183 L129.529,0.183 L129.529,5.856 L129.528,5.856 Z" id="Shape"></path>
            </g>
        </g>
    </g>
</svg>